[img]http://a.imageshack.us/img51/6029/3138031e99497e84945d28d.png[/img]
[code]
Plot:
une Havens finds her everyday life tangled with that of a secret agent who has realized he isn't supposed to survive his latest mission. As their campaign to stay alive stretches across the globe, they soon learn that all they can count on is each other.

 
http://www.imdb.com/title/tt1013743/


General
Complete name                    : Knight.And.Day.2010.TS.XviD-TA.avi
Format                           : AVI
Format/Info                      : Audio Video Interleave
File size                        : 715 MiB
Duration                         : 1h 43mn
Overall bit rate                 : 963 Kbps
Writing application              : VirtualDubMod 1.5.10.2 (build 2540/release)
Writing library                  : VirtualDub build 32661/release

Video
ID                               : 0
Format                           : MPEG-4 Visual
Format profile                   : AdvancedSimple@L5
Format settings, BVOP            : Yes
Format settings, QPel            : No
Format settings, GMC             : No warppoints
Format settings, Matrix          : Default (H.263)
Muxing mode                      : Packed bitstream
Codec ID                         : XVID
Codec ID/Hint                    : XviD
Duration                         : 1h 43mn
Bit rate                         : 828 Kbps
Width                            : 640 pixels
Height                           : 240 pixels
Display aspect ratio             : 2.667
Frame rate                       : 25.000 fps
Resolution                       : 24 bits
Colorimetry                      : 4:2:0
Scan type                        : Progressive
Bits/(Pixel*Frame)               : 0.216
Stream size                      : 615 MiB (86%)
Writing library                  : XviD 1.2.1 (UTC 2008-12-04)

Audio
ID                               : 1
Format                           : MPEG Audio
Format version                   : Version 1
Format profile                   : Layer 3
Codec ID                         : 55
Codec ID/Hint                    : MP3
Duration                         : 1h 43mn
Bit rate mode                    : Variable
Bit rate                         : 122 Kbps
Nominal bit rate                 : 132 Kbps
Channel(s)                       : 2 channels
Sampling rate                    : 48.0 KHz
Resolution                       : 16 bits
Stream size                      : 90.9 MiB (13%)
Alignment                        : Aligned on interleaves
Interleave, duration             : 24 ms (0.60 video frame)
Interleave, preload duration     : 525 ms
Writing library                  : LAME3.99a
Encoding settings                : -m j -V 4 -q 3 -lowpass 17 --abr 132
[/code]
Screens:
[img]http://a.imageshack.us/img340/1231/e9ywba.png[/img]
[img]http://a.imageshack.us/img230/9520/x0z9tf.png[/img]
[img]http://a.imageshack.us/img713/6668/1z4e5i9.png[/img]
[img]http://a.imageshack.us/img825/180/14y95hl.png[/img]